<svg width="49" height="40" viewBox="0 0 49 40" fill="none" xmlns="http://www.w3.org/2000/svg">
<path d="M42.8801 0.981015C41.6624 0.924468 40.421 1.3102 39.3977 2.11141L36.6516 4.26039L24.1262 14.0757L11.718 4.35355C11.545 4.17445 11.3168 4.06781 11.0754 4.05336H11.3254L8.86054 2.11969C7.83657 1.3165 6.59331 0.928594 5.37421 0.985156C4.15511 1.04172 2.96111 1.54189 2.03437 2.51098C0.857111 3.74129 0.126165 5.46215 0.126165 7.3493V10.9889C0.111591 11.0925 0.111591 11.1979 0.126165 11.3015V36.0645C0.126165 38.101 1.70498 39.7745 3.62617 39.7745H11.1262C11.3914 39.7745 11.6457 39.6628 11.8332 39.464C12.0208 39.2653 12.1261 38.9957 12.1262 38.7145V21.09L23.5324 30.0275C23.7044 30.162 23.9125 30.2345 24.1262 30.2345C24.3399 30.2345 24.548 30.162 24.7199 30.0275L36.1262 21.09V38.7145C36.1262 38.9957 36.2316 39.2653 36.4191 39.464C36.6066 39.6628 36.861 39.7745 37.1262 39.7745H44.6262C46.5474 39.7745 48.1262 38.101 48.1262 36.0645V11.2808C48.1375 11.1894 48.1375 11.0969 48.1262 11.0055V7.3493C48.1262 5.48533 47.4166 3.77246 46.2551 2.53996C46.2215 2.50438 46.2103 2.49452 46.2238 2.50891C46.2219 2.50683 46.2199 2.50476 46.218 2.5027C45.2914 1.53575 44.0978 1.03756 42.8801 0.981015ZM42.7707 3.09895C43.527 3.13038 44.2602 3.43443 44.8156 4.01402C44.8345 4.03382 44.8483 4.04876 44.8391 4.03887C45.6355 4.88397 46.1262 6.05446 46.1262 7.3493V10.6204L38.1262 16.8872V5.85453C38.1266 5.8186 38.1253 5.78267 38.1223 5.74688L40.5852 3.81734H40.5871C41.2357 3.30945 42.0144 3.06751 42.7707 3.09895ZM5.48359 3.10516C6.24073 3.07374 7.02206 3.31446 7.67109 3.82355L10.1301 5.75102C10.1272 5.78543 10.1259 5.81998 10.1262 5.85453V16.8872L2.12617 10.6204V7.3493C2.12617 6.03948 2.62792 4.86752 3.43867 4.02023C3.99392 3.4396 4.72644 3.13657 5.48359 3.10516ZM36.1262 7.30789V18.4545L24.1262 27.8557L12.1262 18.4545V7.30996L23.5324 16.2475C23.7044 16.382 23.9125 16.4545 24.1262 16.4545C24.3399 16.4545 24.548 16.382 24.7199 16.2475L36.1262 7.30789ZM2.12617 13.2559L10.1262 19.5248V37.6545H3.62617C2.78535 37.6545 2.12617 36.9558 2.12617 36.0645V13.2559ZM46.1262 13.2559V36.0645C46.1262 36.9558 45.467 37.6545 44.6262 37.6545H38.1262V19.5248L46.1262 13.2559Z" fill="white"/>
</svg>
