<svg width="43" height="43" viewBox="0 0 43 43" fill="none" xmlns="http://www.w3.org/2000/svg">
<path d="M3.6875 0C1.72812 0 0.125 1.60312 0.125 3.5625V39.1875C0.125 41.1469 1.72812 42.75 3.6875 42.75H39.3125C41.2719 42.75 42.875 41.1469 42.875 39.1875V3.5625C42.875 1.60312 41.2719 0 39.3125 0H3.6875ZM3.6875 1.425H39.3125C40.5009 1.425 41.45 2.37407 41.45 3.5625V39.1875C41.45 40.3759 40.5009 41.325 39.3125 41.325H3.6875C2.49907 41.325 1.55 40.3759 1.55 39.1875V3.5625C1.55 2.37407 2.49907 1.425 3.6875 1.425ZM10.0304 5.68887C7.67861 5.68887 5.7582 7.60928 5.7582 9.95552C5.7582 12.3045 7.67861 14.225 10.0304 14.225C12.3767 14.225 14.2943 12.3045 14.2943 9.95552C14.2943 7.60928 12.3767 5.68887 10.0304 5.68887ZM18.65 5.7C18.2576 5.7 17.9375 6.02007 17.9375 6.4125C17.9375 6.80493 18.2576 7.125 18.65 7.125C19.0424 7.125 19.3625 6.80493 19.3625 6.4125C19.3625 6.02007 19.0424 5.7 18.65 5.7ZM21.5 5.7C21.1076 5.7 20.7875 6.02007 20.7875 6.4125C20.7875 6.80493 21.1076 7.125 21.5 7.125C21.8924 7.125 22.2125 6.80493 22.2125 6.4125C22.2125 6.02007 21.8924 5.7 21.5 5.7ZM24.35 5.7C23.9576 5.7 23.6375 6.02007 23.6375 6.4125C23.6375 6.80493 23.9576 7.125 24.35 7.125C24.7424 7.125 25.0625 6.80493 25.0625 6.4125C25.0625 6.02007 24.7424 5.7 24.35 5.7ZM27.2 5.7C26.8076 5.7 26.4875 6.02007 26.4875 6.4125C26.4875 6.80493 26.8076 7.125 27.2 7.125C27.5924 7.125 27.9125 6.80493 27.9125 6.4125C27.9125 6.02007 27.5924 5.7 27.2 5.7ZM30.05 5.7C29.6576 5.7 29.3375 6.02007 29.3375 6.4125C29.3375 6.80493 29.6576 7.125 30.05 7.125C30.4424 7.125 30.7625 6.80493 30.7625 6.4125C30.7625 6.02007 30.4424 5.7 30.05 5.7ZM32.9 5.7C32.5076 5.7 32.1875 6.02007 32.1875 6.4125C32.1875 6.80493 32.5076 7.125 32.9 7.125C33.2924 7.125 33.6125 6.80493 33.6125 6.4125C33.6125 6.02007 33.2924 5.7 32.9 5.7ZM35.75 5.7C35.3576 5.7 35.0375 6.02007 35.0375 6.4125C35.0375 6.80493 35.3576 7.125 35.75 7.125C36.1424 7.125 36.4625 6.80493 36.4625 6.4125C36.4625 6.02007 36.1424 5.7 35.75 5.7ZM10.0304 7.11387C11.6029 7.11387 12.8693 8.38022 12.8693 9.95552C12.8693 11.5336 11.6029 12.8 10.0304 12.8C8.44678 12.8 7.1832 11.5336 7.1832 9.95552C7.1832 8.38022 8.44678 7.11387 10.0304 7.11387ZM28.6974 15.0042C26.443 15.0042 24.7118 15.881 23.5262 17.0054V15.4941H16.2258V36.6381H23.7739V26.1732C23.7739 24.9319 23.9158 23.7686 24.3277 23.0199C24.7424 22.2684 25.3297 21.8203 26.738 21.8203C28.0878 21.8203 28.5192 22.2935 28.8477 23.1229C29.1761 23.955 29.2123 25.1963 29.2123 26.3347V36.6381H36.0506V35.2131L36.7631 35.9256V25.1101C36.7631 22.402 36.4959 19.9305 35.3047 18.0435C34.1135 16.1537 31.9565 15.0042 28.6974 15.0042ZM6.24805 15.4941V36.6381H13.8072V15.4941H6.24805ZM28.6974 16.4292C31.6448 16.4292 33.1644 17.3199 34.0996 18.8033C35.0347 20.284 35.3381 22.505 35.3381 25.1101V35.2131H30.6373V26.3347C30.6373 25.188 30.6512 23.8103 30.1725 22.5996C29.6965 21.3917 28.5332 20.3953 26.738 20.3953C24.9567 20.3953 23.7071 21.1913 23.0809 22.3324C22.4546 23.4708 22.3489 24.8401 22.3489 26.1732V35.2131H17.6508V16.9191H22.1012V19.6132H23.3286L23.529 19.2347C24.222 17.9238 25.9754 16.4292 28.6974 16.4292ZM7.67305 16.9191H12.3822V35.2131H7.67305V16.9191Z" fill="white"/>
</svg>
