<svg width="45" height="45" viewBox="0 0 45 45" fill="none" xmlns="http://www.w3.org/2000/svg">
<path d="M13.125 0.375C5.95748 0.375 0.125 6.20748 0.125 13.375V31.375C0.125 38.5425 5.95748 44.375 13.125 44.375H31.125C38.2925 44.375 44.125 38.5425 44.125 31.375V13.375C44.125 6.20748 38.2925 0.375 31.125 0.375H13.125ZM13.125 2.375H31.125C37.2115 2.375 42.125 7.28852 42.125 13.375V31.375C42.125 37.4615 37.2115 42.375 31.125 42.375H13.125C7.03852 42.375 2.125 37.4615 2.125 31.375V13.375C2.125 7.28852 7.03852 2.375 13.125 2.375ZM34.125 8.375C33.5946 8.375 33.0859 8.58571 32.7108 8.96079C32.3357 9.33586 32.125 9.84457 32.125 10.375C32.125 10.9054 32.3357 11.4141 32.7108 11.7892C33.0859 12.1643 33.5946 12.375 34.125 12.375C34.6554 12.375 35.1641 12.1643 35.5392 11.7892C35.9143 11.4141 36.125 10.9054 36.125 10.375C36.125 9.84457 35.9143 9.33586 35.5392 8.96079C35.1641 8.58571 34.6554 8.375 34.125 8.375ZM22.125 11.375C16.0617 11.375 11.125 16.3117 11.125 22.375C11.125 28.4383 16.0617 33.375 22.125 33.375C28.1883 33.375 33.125 28.4383 33.125 22.375C33.125 16.3117 28.1883 11.375 22.125 11.375ZM22.125 13.375C27.1074 13.375 31.125 17.3926 31.125 22.375C31.125 27.3574 27.1074 31.375 22.125 31.375C17.1426 31.375 13.125 27.3574 13.125 22.375C13.125 17.3926 17.1426 13.375 22.125 13.375Z" fill="white"/>
</svg>
